<?xml version="1.0" encoding="UTF-8"?>
<!DOCTYPE svg PUBLIC "-//W3C//DTD SVG 1.1//EN" "http://www.w3.org/Graphics/SVG/1.1/DTD/svg11.dtd">
<svg xmlns="http://www.w3.org/2000/svg" stroke="black" version="1.1" width="1041px" height="1204px" style="shape-rendering:geometricPrecision; text-rendering:geometricPrecision; image-rendering:optimizeQuality; fill-rule:evenodd; clip-rule:evenodd" xmlns:xlink="http://www.w3.org/1999/xlink">
<g><path style="opacity:1" fill="black" d="M 494.5,-0.5 C 513.5,-0.5 532.5,-0.5 551.5,-0.5C 551.5,28.1667 551.5,56.8333 551.5,85.5C 587.5,85.5 623.5,85.5 659.5,85.5C 659.5,104.833 659.5,124.167 659.5,143.5C 623.5,143.5 587.5,143.5 551.5,143.5C 551.333,325.834 551.5,508.167 552,690.5C 568.667,709.833 585.333,729.167 602,748.5C 602.878,595.167 603.711,441.834 604.5,288.5C 618.397,298.559 631.564,309.559 644,321.5C 651.997,331.833 656.997,343.5 659,356.5C 659.333,506.5 659.667,656.5 660,806.5C 710,856.5 760,906.5 810,956.5C 865.291,867.736 879.291,772.736 852,671.5C 831.697,604.843 795.364,548.843 743,503.5C 721.256,479.774 711.09,451.774 712.5,419.5C 815.689,479.245 881.022,567.412 908.5,684C 930.588,795.893 910.254,899.226 847.5,994C 911.701,1058.37 976.035,1122.53 1040.5,1186.5C 1040.5,1187.17 1040.5,1187.83 1040.5,1188.5C 1031.56,1196.47 1021.22,1201.47 1009.5,1203.5C 1005.5,1203.5 1001.5,1203.5 997.5,1203.5C 986.225,1202.01 976.225,1197.51 967.5,1190C 817.986,1040.32 668.32,890.82 518.5,741.5C 370.897,889.604 222.897,1037.77 74.5,1186C 54.9527,1202.25 33.6194,1204.92 10.5,1194C 6.44202,1191.64 2.77535,1188.81 -0.5,1185.5C -0.5,1185.17 -0.5,1184.83 -0.5,1184.5C 62.8123,1121.85 125.812,1058.85 188.5,995.5C 118.754,889.459 100.92,775.125 135,652.5C 169.023,546.994 234.523,467.661 331.5,414.5C 332.851,442.613 324.685,467.613 307,489.5C 288.365,505.801 270.698,523.135 254,541.5C 176.37,636.62 152.704,743.953 183,863.5C 192.803,897.107 207.303,928.441 226.5,957.5C 279.153,905.347 331.653,853.014 384,800.5C 384.333,654.833 384.667,509.167 385,363.5C 386.71,342.913 395.21,325.747 410.5,312C 420.833,304.167 431.167,296.333 441.5,288.5C 442.333,439.499 442.833,590.499 443,741.5C 460,724.5 477,707.5 494,690.5C 494.5,508.167 494.667,325.834 494.5,143.5C 457.833,143.5 421.167,143.5 384.5,143.5C 384.5,124.167 384.5,104.833 384.5,85.5C 421.167,85.5 457.833,85.5 494.5,85.5C 494.5,56.8333 494.5,28.1667 494.5,-0.5 Z M 516.5,963.5 C 548.632,961.294 568.799,975.627 577,1006.5C 577.5,1040.17 577.667,1073.83 577.5,1107.5C 543.167,1107.5 508.833,1107.5 474.5,1107.5C 474.041,1072.46 474.541,1037.46 476,1002.5C 482.525,982.14 496.025,969.14 516.5,963.5 Z"/></g>
<g><path style="opacity:1" fill="black" d="M 516.5,912.5 C 565.486,911.062 600.32,932.396 621,976.5C 623.783,983.964 625.783,991.63 627,999.5C 628.424,1032.14 628.924,1064.81 628.5,1097.5C 668.046,1084.73 703.712,1065.23 735.5,1039C 736.5,1038.33 737.5,1038.33 738.5,1039C 750.348,1050.68 762.014,1062.51 773.5,1074.5C 707.838,1129.8 631.838,1160.63 545.5,1167C 439.1,1173.09 344.766,1142.75 262.5,1076C 274.681,1063.65 287.014,1051.49 299.5,1039.5C 336.682,1068.84 378.182,1090.18 424,1103.5C 424.333,1069.17 424.667,1034.83 425,1000.5C 431.773,960.117 454.273,932.617 492.5,918C 500.505,915.57 508.505,913.736 516.5,912.5 Z M 516.5,963.5 C 496.025,969.14 482.525,982.14 476,1002.5C 474.541,1037.46 474.041,1072.46 474.5,1107.5C 508.833,1107.5 543.167,1107.5 577.5,1107.5C 577.667,1073.83 577.5,1040.17 577,1006.5C 568.799,975.627 548.632,961.294 516.5,963.5 Z"/></g>
</svg>
