<svg aria-hidden="true" style="position: absolute; width: 0; height: 0; overflow: hidden;" version="1.1" xmlns="http://www.w3.org/2000/svg" xmlns:xlink="http://www.w3.org/1999/xlink">
<defs>
<symbol id="icon-facebook" viewBox="0 0 32 32">
<path style="fill: var(--color1)" d="M16 1.92c-7.769 0-14.080 6.311-14.080 14.080 0 7.052 5.202 12.889 11.976 13.906l0.735 0.111v-11.095h-3.326v-2.253h3.326v-2.991c0-1.842 0.442-3.055 1.174-3.816s1.813-1.145 3.317-1.145c1.203 0 1.671 0.073 2.116 0.127v1.844h-1.566c-0.889 0-1.618 0.496-1.996 1.156s-0.496 1.449-0.496 2.252v2.571h3.919l-0.349 2.253h-3.57v11.114l0.726-0.099c6.871-0.932 12.174-6.815 12.174-13.936 0-7.769-6.311-14.080-14.080-14.080zM16 3.2c7.077 0 12.8 5.723 12.8 12.8 0 6.227-4.457 11.348-10.34 12.501v-8.3h3.387l0.744-4.813h-4.131v-1.291c0-0.664 0.122-1.259 0.326-1.616s0.402-0.512 0.886-0.512h2.846v-4.282l-0.555-0.075c-0.384-0.052-1.26-0.174-2.841-0.174-1.73 0-3.215 0.471-4.24 1.537s-1.531 2.654-1.531 4.704v1.711h-3.326v4.813h3.326v8.259c-5.788-1.226-10.151-6.302-10.151-12.461 0-7.077 5.723-12.8 12.8-12.8z"></path>
</symbol>
<symbol id="icon-instagram" viewBox="0 0 32 32">
<path style="fill: var(--color1)" d="M10.4 2.667h11.2c4.271 0 7.733 3.462 7.733 7.733v11.2c0 4.271-3.462 7.733-7.733 7.733h-11.2c-4.271 0-7.733-3.462-7.733-7.733v-11.2c0-4.271 3.462-7.733 7.733-7.733zM10.133 5.333c-2.651 0-4.8 2.149-4.8 4.8v11.733c0 2.651 2.149 4.8 4.8 4.8h11.733c2.651 0 4.8-2.149 4.8-4.8v-11.733c0-2.651-2.149-4.8-4.8-4.8h-11.733zM23 7.333c0.921 0 1.667 0.746 1.667 1.667s-0.746 1.667-1.667 1.667c-0.921 0-1.667-0.746-1.667-1.667s0.746-1.667 1.667-1.667zM16 9.333c3.682 0 6.667 2.985 6.667 6.667s-2.985 6.667-6.667 6.667c-3.682 0-6.667-2.985-6.667-6.667s2.985-6.667 6.667-6.667zM16 12c-2.209 0-4 1.791-4 4s1.791 4 4 4 4-1.791 4-4c0-2.209-1.791-4-4-4z"></path>
</symbol>
<symbol id="icon-youtube" viewBox="0 0 32 32">
<path style="fill: var(--color1)" d="M16 5.333c0 0-8.339-0-10.419 0.557-1.148 0.307-2.050 1.21-2.357 2.357-0.557 2.080-0.557 7.753-0.557 7.753s-0 5.673 0.557 7.753c0.307 1.148 1.21 2.050 2.357 2.357 2.080 0.557 10.419 0.557 10.419 0.557s8.339 0 10.419-0.557c1.147-0.307 2.050-1.21 2.357-2.357 0.557-2.080 0.557-7.753 0.557-7.753s0-5.673-0.557-7.753c-0.307-1.147-1.21-2.050-2.357-2.357-2.080-0.557-10.419-0.557-10.419-0.557zM16 8c3.843 0 8.654 0.178 9.729 0.466 0.225 0.060 0.41 0.245 0.471 0.471 0.321 1.197 0.466 4.852 0.466 7.063s-0.145 5.864-0.466 7.063c-0.060 0.225-0.245 0.41-0.471 0.471-1.073 0.288-5.886 0.466-9.729 0.466-3.841 0-8.653-0.178-9.729-0.466-0.225-0.060-0.41-0.245-0.471-0.471-0.321-1.197-0.466-4.852-0.466-7.063s0.145-5.865 0.466-7.065c0.060-0.224 0.245-0.409 0.471-0.469 1.073-0.288 5.886-0.466 9.729-0.466zM13.333 11.38v9.24l8-4.62-8-4.62z"></path>
</symbol>
</defs>
</svg>
