<svg id="Filled" height="512" viewBox="0 0 512 512" width="512" xmlns="http://www.w3.org/2000/svg"><path d="m120 360h80a32 32 0 0 1 27.72 16h68.35a23.688 23.688 0 0 1 22.693 16.188 24.07 24.07 0 0 1 -22.763 31.812h24l121.52-61.15a24 24 0 0 1 32.26 10.55l3.62 7.14a24.008 24.008 0 0 1 -10.55 32.26l-139.979 71.683a32.01 32.01 0 0 1 -14.586 3.517h-192.285z" fill="#f0c6a4"/><path d="m120 488h-88v-128h88z" fill="#7e8589"/><circle cx="256" cy="176" fill="#e9eef2" r="128"/><circle cx="256" cy="176" fill="#ffb632" r="16"/><path d="m256 24a152 152 0 1 0 152 152 152 152 0 0 0 -152-152zm0 272a120 120 0 1 1 120-120 120 120 0 0 1 -120 120z" fill="#ffb632"/><path d="m256 336c88.224 0 160-71.776 160-160s-71.776-160-160-160-160 71.776-160 160 71.776 160 160 160zm0-304c79.4 0 144 64.6 144 144s-64.6 144-144 144-144-64.6-144-144 64.6-144 144-144z"/><path d="m32 496h280.285a40.189 40.189 0 0 0 18.233-4.4l139.955-71.669a32.05 32.05 0 0 0 14.065-43.012l-3.62-7.139a32 32 0 0 0 -42.992-14.08l-112.387 56.558a32.822 32.822 0 0 0 .847-22.5 31.51 31.51 0 0 0 -30.316-21.758h-64.07a40.158 40.158 0 0 0 -32-16h-168a8 8 0 0 0 -8 8v128a8 8 0 0 0 8 8zm188.8-115.995a8 8 0 0 0 6.925 4h68.345a15.771 15.771 0 0 1 15.07 10.614 16.232 16.232 0 0 1 -3.818 16.693 15.932 15.932 0 0 1 -11.322 4.688h-88a8 8 0 1 0 0 16h112a8 8 0 0 0 3.6-.854l121.54-61.16a16 16 0 0 1 21.508 7.032l3.619 7.138a16.035 16.035 0 0 1 -7.06 21.523l-139.982 71.683a24.11 24.11 0 0 1 -10.94 2.638h-184.285v-112h72a24.1 24.1 0 0 1 20.8 12.005zm-180.8-12.005h72v112h-72z"/><path d="m256 48a128 128 0 1 0 128 128 128.144 128.144 0 0 0 -128-128zm104 136h7.711a111.536 111.536 0 0 1 -27.1 65.3l-5.419-5.419a8 8 0 1 0 -11.31 11.319l5.419 5.419a111.536 111.536 0 0 1 -65.3 27.1v-7.719a8 8 0 0 0 -16 0v7.711a111.536 111.536 0 0 1 -65.3-27.1l5.419-5.419a8 8 0 1 0 -11.32-11.31l-5.419 5.419a111.536 111.536 0 0 1 -27.1-65.3h7.719a8 8 0 0 0 0-16h-7.711a111.536 111.536 0 0 1 27.1-65.3l5.419 5.419a8 8 0 1 0 11.31-11.32l-5.418-5.415a111.536 111.536 0 0 1 65.3-27.1v7.715a8 8 0 0 0 16 0v-7.711a111.536 111.536 0 0 1 65.3 27.1l-5.418 5.411a8 8 0 0 0 11.318 11.318l5.419-5.419a111.536 111.536 0 0 1 27.1 65.3h-7.719a8 8 0 0 0 0 16z"/><path d="m328 168h-49.376a24.116 24.116 0 0 0 -14.624-14.624v-33.376a8 8 0 0 0 -16 0v33.376a24 24 0 1 0 30.624 30.624h49.376a8 8 0 0 0 0-16zm-72 16a8 8 0 1 1 8-8 8.009 8.009 0 0 1 -8 8z"/></svg>