<svg id="Capa_1" enable-background="new 0 0 512 512" height="512" viewBox="0 0 512 512" width="512" xmlns="http://www.w3.org/2000/svg"><g><g><path clip-rule="evenodd" d="m58.949 192.219h119.651l38.721 45.696 38.721-45.696h119.679c13.861 0 25.172-11.339 25.172-25.201v-127.988c0-13.862-11.31-25.172-25.172-25.172h-316.772c-13.861 0-25.2 11.311-25.2 25.172v127.988c0 13.862 11.339 25.201 25.2 25.201z" fill="#eb5468" fill-rule="evenodd"/></g><g><path clip-rule="evenodd" d="m373.851 13.857c-20.154 30.19-52.498 60.862-93.6 87.905-22.139 14.542-46.8 28.064-73.446 39.856-59.584 26.363-118.8 39.658-168.208 40.225 4.592 6.265 12.019 10.375 20.353 10.375h119.65l38.721 45.696 38.721-45.696h119.679c13.861 0 25.172-11.339 25.172-25.201v-127.987c0-13.862-11.31-25.172-25.172-25.172h-1.87z" fill="#e5384f" fill-rule="evenodd"/></g><g><path clip-rule="evenodd" d="m231.013 380.757 17.632 86.771c.34 1.644-.34 3.26-.992 4.677 25.852 8.589 44.646 25.938 84.133 25.938h113.868c11.877 0 21.628-9.723 21.628-21.629 0-11.878-9.751-21.601-21.628-21.601h13.323c14.032 0 25.512-11.509 25.512-25.541s-11.48-25.513-25.512-25.513h9.978c14.06 0 25.54-11.509 25.54-25.541 0-14.004-11.452-25.484-25.455-25.513h.057 9.865c14.032 0 25.54-11.509 25.54-25.541s-11.509-25.569-25.54-25.513l-40.139.085v-21.686c0-14.854-12.161-27.015-27.014-27.015h-48.671c-37.077 0-44.221 5.074-69.477 22.224-24.576 16.697-23.896 18.426-45.014 18.596v.028z" fill="#ffe5c1" fill-rule="evenodd"/></g><g><path clip-rule="evenodd" d="m120.659 293.985-11.338 76.85 11.338 96.693h65.339l15.392-86.771-15.392-86.772z" fill="#ffe5c1" fill-rule="evenodd"/></g><g><path clip-rule="evenodd" d="m76.24 263.399-12.16 108.967 12.16 125.777h31.181c7.285 0 13.238-5.953 13.238-13.267v-17.349-173.542-17.349c0-7.285-5.953-13.238-13.238-13.238h-31.181z" fill="#eff6ff" fill-rule="evenodd"/></g><g><path clip-rule="evenodd" d="m7.5 263.399h68.74v234.744h-68.74z" fill="#9fd4fe" fill-rule="evenodd"/></g><g><path clip-rule="evenodd" d="m7.5 470.561h68.74v27.582h-68.74z" fill="#85beef" fill-rule="evenodd"/></g><g><path clip-rule="evenodd" d="m76.24 470.561v27.582h31.181c7.285 0 13.238-5.953 13.238-13.267v-17.349-10.205c0 7.285-5.953 13.238-13.238 13.238h-31.181z" fill="#d9eeff" fill-rule="evenodd"/></g><g><path clip-rule="evenodd" d="m120.659 467.528h65.339v-27.554h-65.339v17.349z" fill="#fed1a3" fill-rule="evenodd"/></g><g><path clip-rule="evenodd" d="m331.784 474.7c-38.977 0-57.799-22.564-83.14-31.239v24.067c0 1.672-.34 3.26-.992 4.677 25.852 8.589 44.646 25.938 84.133 25.938h113.868c11.877 0 21.628-9.723 21.628-21.629 0-5.584-2.154-10.687-5.669-14.542-3.969 4.337-9.666 12.728-15.959 12.728z" fill="#fed1a3" fill-rule="evenodd"/></g><g><path clip-rule="evenodd" d="m185.998 293.985v37.163c9.071-5.726 19.814-9.043 31.323-9.043 11.537 0 22.28 3.317 31.323 9.043v-37.163s0 0 0-.028c0-6.321-5.187-11.481-11.509-11.481h-39.6c-6.349 0-11.537 5.188-11.537 11.509z" fill="#c38c66" fill-rule="evenodd"/></g><g><path clip-rule="evenodd" d="m185.998 430.364v37.163c0 6.35 5.187 11.537 11.537 11.537h39.6c4.677 0 8.702-2.835 10.517-6.86.652-1.417.992-3.005.992-4.677v-37.163c-9.043 5.726-19.786 9.071-31.323 9.071-11.509 0-22.252-3.345-31.323-9.071z" fill="#c38c66" fill-rule="evenodd"/></g><g><path clip-rule="evenodd" d="m197.535 451.483c-6.35 0-11.537-5.188-11.537-11.509v27.554c0 6.35 5.187 11.537 11.537 11.537h39.6c4.677 0 8.702-2.835 10.517-6.86.652-1.417.992-3.005.992-4.677v-27.554c0 1.644-.34 3.232-.992 4.677-1.814 4.025-5.839 6.832-10.517 6.832z" fill="#b57f5f" fill-rule="evenodd"/></g><g><path clip-rule="evenodd" d="m185.998 331.149c9.071-5.726 19.814-9.043 31.323-9.043 11.537 0 22.28 3.317 31.323 9.043v-14.939c-.142-.113-.312-.198-.454-.283-9.071-5.755-19.814-9.071-31.323-9.071-11.31 0-21.884 3.203-30.869 8.759z" fill="#b57f5f" fill-rule="evenodd"/></g><g><path clip-rule="evenodd" d="m158.672 380.757c0 20.892 10.913 39.204 27.326 49.608 9.071 5.726 19.814 9.071 31.323 9.071 11.537 0 22.28-3.345 31.323-9.071 16.441-10.403 27.354-28.716 27.354-49.608 0-20.864-10.913-39.204-27.354-49.608-9.043-5.726-19.786-9.043-31.323-9.043-11.509 0-22.252 3.317-31.323 9.043-16.412 10.403-27.326 28.744-27.326 49.608z" fill="#eff6ff" fill-rule="evenodd"/></g><g><path clip-rule="evenodd" d="m215.507 413.214c-11.509 0-22.252-3.317-31.323-9.071-11.735-7.427-20.665-18.936-24.803-32.543-.454 3.005-.709 6.038-.709 9.156 0 20.892 10.913 39.204 27.326 49.608 9.071 5.726 19.814 9.071 31.323 9.071 11.537 0 22.28-3.345 31.323-9.071 16.441-10.403 27.354-28.716 27.354-49.608 0-5.925-.879-11.651-2.523-17.065-2.665 17.008-12.671 31.607-26.646 40.452-9.042 5.755-19.785 9.071-31.322 9.071z" fill="#d9eeff" fill-rule="evenodd"/></g><g><path d="m512 327.265c0-8.82-3.464-17.127-9.753-23.391-6.234-6.208-14.461-9.623-23.168-9.623-.044 0-.09 0-.135 0l-32.623.069v-14.169c0-19.032-15.483-34.515-34.515-34.515h-48.671c-39.058 0-47.619 5.813-73.03 23.071l-.662.45c-3.267 2.22-6.091 4.176-8.581 5.902-13.691 9.488-15.867 10.989-26.325 11.306-2.944-6.696-9.631-11.389-17.403-11.389h-39.6c-7.83 0-14.567 4.747-17.487 11.509h-51.889v-9.849c0-11.435-9.303-20.738-20.738-20.738h-99.92c-4.142 0-7.5 3.358-7.5 7.5s3.358 7.5 7.5 7.5h61.24v90.497c0 4.142 3.358 7.5 7.5 7.5s7.5-3.358 7.5-7.5v-90.497h23.681c3.164 0 5.738 2.574 5.738 5.738v208.24c0 3.179-2.574 5.766-5.738 5.766h-23.681v-94.635c0-4.142-3.358-7.5-7.5-7.5s-7.5 3.358-7.5 7.5v94.635h-61.24c-4.142 0-7.5 3.358-7.5 7.5s3.358 7.5 7.5 7.5h99.921c11.435 0 20.738-9.315 20.738-20.766v-9.849h51.884c2.917 6.777 9.657 11.537 17.492 11.537h39.6c5.144 0 9.81-2.065 13.236-5.401 5.642 2.191 11.079 4.778 16.757 7.485 16.707 7.966 35.643 16.994 64.656 16.994h113.868c16.062 0 29.128-13.067 29.128-29.129 0-5.901-1.767-11.397-4.8-15.988 12.81-4.545 22.007-16.794 22.007-31.153 0-8.253-3.043-15.807-8.067-21.601 10.717-5.469 18.073-16.618 18.073-29.452 0-8.251-3.045-15.805-8.072-21.599 10.721-5.468 18.079-16.618 18.079-29.455zm-294.679 104.671c-28.204 0-51.149-22.959-51.149-51.179 0-28.205 22.945-51.15 51.149-51.15 28.219 0 51.177 22.946 51.177 51.15.001 28.22-22.957 51.179-51.177 51.179zm-19.786-141.959h39.6c2.21 0 4.009 1.798 4.009 4.009v25.072c-7.398-2.864-15.426-4.452-23.823-4.452s-16.426 1.589-23.823 4.456v-25.077c0-2.173 1.849-4.008 4.037-4.008zm-69.376 11.508h50.339v25.76c-16.543 12.036-27.326 31.533-27.326 53.511 0 21.987 10.783 41.493 27.326 53.534v25.737h-50.339zm108.976 170.08h-39.6c-2.226 0-4.037-1.811-4.037-4.037v-25.05c7.397 2.868 15.426 4.458 23.823 4.458s16.425-1.589 23.823-4.454v25.046c0 2.188-1.836 4.037-4.009 4.037zm241.825-126.259h-20.229l-20.041-.028c-.004 0-.007 0-.011 0-4.137 0-7.494 3.351-7.5 7.489-.006 4.142 3.347 7.505 7.489 7.511l20.041.028h.011 10.233c9.947 0 18.04 8.081 18.04 18.013 0 9.948-8.093 18.041-18.04 18.041h-9.967l-20.041-.028c-.004 0-.007 0-.011 0-4.137 0-7.494 3.351-7.5 7.489-.006 4.142 3.347 7.505 7.489 7.511l20.041.028h.011c9.932 0 18.012 8.081 18.012 18.013 0 9.948-8.08 18.041-18.012 18.041h-13.312l-20.041-.028c-.004 0-.007 0-.011 0-4.137 0-7.494 3.351-7.5 7.489-.006 4.142 3.347 7.505 7.489 7.511l20.041.028h.011c7.791 0 14.128 6.326 14.128 14.101 0 7.791-6.338 14.129-14.128 14.129h-113.867c-25.62 0-42.183-7.897-58.2-15.534-5.606-2.673-11.356-5.414-17.44-7.797v-33.009c16.56-12.04 27.354-31.551 27.354-53.546 0-21.985-10.795-41.488-27.354-53.523v-25.972c13.832-.707 18.435-3.598 33.263-13.874 2.456-1.702 5.242-3.633 8.465-5.822l.661-.449c24.367-16.548 30.157-20.48 64.603-20.48h48.671c10.76 0 19.515 8.754 19.515 19.515v14.182l-50.579-.025c-.001 0-.002 0-.003 0-4.141 0-7.498 3.355-7.5 7.497s3.354 7.501 7.497 7.503l58.083.028h.003.016l40.153-.085h.073c4.726 0 9.198 1.863 12.599 5.25 3.442 3.429 5.338 7.961 5.338 12.763-.003 9.947-8.096 18.04-18.043 18.04z"/><path d="m231.013 373.256h-9.761l-13.694-19.786c-2.357-3.407-7.031-4.257-10.435-1.899-3.406 2.357-4.256 7.029-1.899 10.435l15.876 22.939c1.38 2.053 3.766 3.311 6.235 3.311h13.678c4.142 0 7.5-3.358 7.5-7.5s-3.358-7.5-7.5-7.5z"/><path d="m58.949 199.719h116.175l36.475 43.044c1.425 1.682 3.518 2.651 5.722 2.651s4.297-.97 5.722-2.651l36.474-43.044h116.204c18.015 0 32.672-14.67 32.672-32.701v-127.988c0-18.016-14.657-32.672-32.672-32.672h-139.974c-4.142 0-7.5 3.358-7.5 7.5s3.358 7.5 7.5 7.5h139.975c9.744 0 17.672 7.928 17.672 17.672v127.988c0 9.76-7.928 17.701-17.672 17.701h-119.68c-2.204 0-4.297.97-5.722 2.651l-32.999 38.943-33-38.943c-1.425-1.682-3.518-2.651-5.722-2.651h-119.65c-9.76 0-17.7-7.941-17.7-17.701v-127.988c0-9.745 7.94-17.672 17.7-17.672h142.158c4.142 0 7.5-3.358 7.5-7.5s-3.358-7.5-7.5-7.5h-142.158c-18.031 0-32.7 14.657-32.7 32.672v127.988c0 18.031 14.669 32.701 32.7 32.701z"/><path d="m266.781 131.966c-4.487.098-8.805-2.02-11.487-5.64-2.466-3.329-7.163-4.029-10.491-1.562-3.329 2.465-4.028 7.163-1.562 10.491 5.455 7.363 14.118 11.714 23.273 11.714.188 0 .378-.002.566-.005 15.062-.308 27.461-12.324 28.227-27.342.424-7.995-2.372-15.592-7.874-21.393-5.432-5.727-13.071-9.012-20.96-9.012-1.934 0-3.652.08-5.216.233l2.224-13.467h19.915c4.142 0 7.5-3.358 7.5-7.5s-3.358-7.5-7.5-7.5h-26.276c-3.67 0-6.802 2.656-7.4 6.278l-5.188 31.409c-.473 2.866.658 5.8 3.049 7.449 2.377 1.64 5.393 1.819 7.895.384.069-.033.175-.082.315-.142l.144-.063c2.773-1.257 5.005-2.081 10.539-2.081 3.848 0 7.426 1.539 10.077 4.333 2.641 2.784 3.982 6.434 3.778 10.292-.368 7.211-6.322 12.976-13.548 13.124z"/><path d="m165.114 98.453c-11.072 15.813-17.686 24.471-21.239 29.122-4.425 5.792-6.256 8.19-4.969 12.376.753 2.449 2.608 4.328 5.091 5.155.997.332 2.016.672 15.677.672 5.313 0 12.541-.051 22.42-.175 4.142-.052 7.458-3.452 7.406-7.593s-3.476-7.463-7.593-7.406c-7.398.093-15.263.151-21.625.158 3.915-5.218 9.475-12.789 17.12-23.707 4.451-6.359 7.342-12.344 8.592-17.789.057-.247.101-.496.132-.748l.34-2.721c.039-.309.058-.62.058-.931 0-13.999-11.389-25.387-25.387-25.387-12.099 0-22.573 8.614-24.906 20.482-.799 4.064 1.849 8.007 5.913 8.806 4.062.799 8.007-1.848 8.806-5.913.954-4.853 5.238-8.375 10.187-8.375 5.592 0 10.166 4.442 10.379 9.982l-.223 1.786c-.868 3.483-2.946 7.587-6.179 12.206z"/><path d="m369.615 119.139v-32.344c0-15.28-12.431-27.711-27.711-27.711s-27.711 12.431-27.711 27.711v32.344c0 15.28 12.431 27.712 27.711 27.712s27.711-12.432 27.711-27.712zm-40.422 0v-32.344c0-7.009 5.702-12.711 12.711-12.711s12.711 5.702 12.711 12.711v32.344c0 7.009-5.702 12.712-12.711 12.712s-12.711-5.703-12.711-12.712z"/><path d="m217.321 137.893c4.142 0 7.5-3.358 7.5-7.5v-.113c0-4.142-3.358-7.5-7.5-7.5s-7.5 3.358-7.5 7.5v.113c0 4.142 3.358 7.5 7.5 7.5z"/><path d="m217.321 83.268c4.142 0 7.5-3.358 7.5-7.5v-.113c0-4.142-3.358-7.5-7.5-7.5s-7.5 3.358-7.5 7.5v.113c0 4.142 3.358 7.5 7.5 7.5z"/><path d="m65.055 86.795v32.344c0 15.28 12.431 27.712 27.711 27.712s27.711-12.432 27.711-27.712v-32.344c0-15.28-12.431-27.711-27.711-27.711-15.28-.001-27.711 12.431-27.711 27.711zm40.423 0v32.344c0 7.009-5.702 12.712-12.711 12.712s-12.711-5.703-12.711-12.712v-32.344c0-7.009 5.702-12.711 12.711-12.711 7.008-.001 12.711 5.702 12.711 12.711z"/></g></g></svg>