<svg width="12" height="25" viewBox="0 0 12 25" fill="none" xmlns="http://www.w3.org/2000/svg">
<path d="M3.00841 4.98577C3.00841 5.58409 3.00841 8.26548 3.00841 8.26548H0.665771V12.2765H3.00841V24.1987H7.81782V12.2765H11.0457C11.0457 12.2765 11.348 10.3541 11.4937 8.24886C11.0727 8.24886 7.83402 8.24886 7.83402 8.24886C7.83402 8.24886 7.83402 5.9165 7.83402 5.50653C7.83402 5.09657 8.3576 4.54256 8.87579 4.54256C9.39397 4.54256 10.4843 4.54256 11.4991 4.54256C11.4991 3.9941 11.4991 2.11047 11.4991 0.365356C10.1497 0.365356 8.6113 0.365356 7.93657 0.365356C2.88965 0.370897 3.00841 4.38744 3.00841 4.98577Z" fill="#C4C4C4"/>
</svg>
