<svg width="31" height="25" viewBox="0 0 31 25" fill="none" xmlns="http://www.w3.org/2000/svg">
<path d="M31 3.26993C29.8848 3.76391 28.6854 4.09487 27.4264 4.24801C28.7101 3.48234 29.6965 2.26222 30.1624 0.819814C28.958 1.53114 27.6247 2.04487 26.2071 2.32644C25.0721 1.1162 23.4563 0.365356 21.6671 0.365356C18.2323 0.365356 15.4418 3.1415 15.4418 6.56475C15.4418 7.04885 15.4963 7.52307 15.6053 7.97753C10.4358 7.72066 5.8511 5.25078 2.77811 1.49656C2.24282 2.41536 1.94048 3.4774 1.94048 4.61355C1.94048 6.76728 3.0408 8.66415 4.70616 9.7756C3.68514 9.74102 2.72855 9.46439 1.88596 8.99512V9.07415C1.88596 12.0775 4.03209 14.5869 6.87708 15.155C6.35665 15.2933 5.80649 15.3723 5.2365 15.3723C4.83503 15.3723 4.44843 15.3328 4.06678 15.2587C4.85981 17.7237 7.15464 19.5168 9.88067 19.5662C7.75437 21.2309 5.06798 22.2188 2.1536 22.2188C1.653 22.2188 1.15736 22.1892 0.671631 22.1349C3.4274 23.8984 6.69369 24.9258 10.2078 24.9258C21.6522 24.9258 27.9122 15.4761 27.9122 7.28102L27.8923 6.47584C29.1116 5.60644 30.1673 4.51475 31 3.26993Z" fill="#C4C4C4"/>
</svg>
