<svg width="30" height="30" viewBox="0 0 30 30" fill="none" xmlns="http://www.w3.org/2000/svg">
<path fill-rule="evenodd" clip-rule="evenodd" d="M28.125 15C28.125 14.7514 28.0262 14.5129 27.8504 14.3371C27.6746 14.1613 27.4361 14.0625 27.1875 14.0625H5.07562L10.9762 8.16377C11.1523 7.98774 11.2512 7.74898 11.2512 7.50002C11.2512 7.25107 11.1523 7.01231 10.9762 6.83627C10.8002 6.66024 10.5615 6.56134 10.3125 6.56134C10.0635 6.56134 9.82479 6.66024 9.64875 6.83627L2.14875 14.3363C2.06144 14.4234 1.99218 14.5268 1.94491 14.6407C1.89765 14.7546 1.87333 14.8767 1.87333 15C1.87333 15.1233 1.89765 15.2454 1.94491 15.3593C1.99218 15.4732 2.06144 15.5767 2.14875 15.6638L9.64875 23.1638C9.82479 23.3398 10.0635 23.4387 10.3125 23.4387C10.5615 23.4387 10.8002 23.3398 10.9762 23.1638C11.1523 22.9877 11.2512 22.749 11.2512 22.5C11.2512 22.2511 11.1523 22.0123 10.9762 21.8363L5.07562 15.9375H27.1875C27.4361 15.9375 27.6746 15.8388 27.8504 15.6629C28.0262 15.4871 28.125 15.2487 28.125 15Z" fill="white"/>
</svg>
