<svg width="48" height="48" viewBox="0 0 48 48" fill="none" xmlns="http://www.w3.org/2000/svg">
<g clip-path="url(#clip0)">
<path d="M28.4088 5.77292C27.9047 5.65152 27.3991 5.96136 27.2778 6.46461C27.1564 6.96795 27.4661 7.47438 27.9694 7.5957C35.568 9.42747 40.8749 16.1731 40.8749 23.9999C40.8749 33.3048 33.3049 40.8748 24 40.8748C14.6951 40.8748 7.12505 33.3048 7.12505 23.9999C7.12505 16.1734 12.4317 9.42775 20.0299 7.59579C20.5332 7.47438 20.8429 6.96795 20.7216 6.4647C20.6002 5.96136 20.0935 5.65189 19.5905 5.77301C15.5705 6.74229 11.9284 9.06606 9.3352 12.3163C6.66268 15.6658 5.25006 19.706 5.25006 23.9999C5.25006 34.3386 13.6613 42.7498 24 42.7498C34.3387 42.7498 42.7499 34.3387 42.7499 23.9999C42.7499 19.7059 41.3373 15.6657 38.6646 12.316C36.0713 9.06588 32.429 6.7421 28.4088 5.77292Z" fill="#1F1F1F"/>
<path d="M47.4346 21.745L46.3378 19.6988L46.5208 17.169C46.6966 15.5475 46.0498 13.965 44.7884 12.933L42.9677 11.4422L42.2516 9.28487C41.8505 7.63535 40.5977 6.30954 38.9723 5.81857L36.725 5.13964L35.004 3.15027C33.9857 1.95243 32.4443 1.32937 30.8807 1.48303L28.5482 1.71543L26.2554 0.565217C24.8424 -0.188062 23.1577 -0.188718 21.7445 0.565123L19.6983 1.66181L17.1687 1.47881C15.5465 1.30293 13.9646 1.9498 12.9327 3.21121L11.4418 5.03182L9.28452 5.74798C7.6349 6.14904 6.3091 7.40181 5.81813 9.02715L5.13929 11.2744L3.14992 12.9956C1.95218 14.0139 1.32874 15.5549 1.48258 17.1189L1.71499 19.4514L0.564775 21.7442C-0.188597 23.1573 -0.189159 24.8419 0.564588 26.2551L1.66136 28.3013L1.47837 30.8311C1.30258 32.4526 1.94936 34.035 3.21076 35.0671L5.03138 36.5579L5.74754 38.7152C6.1485 40.3647 7.40128 41.6906 9.0268 42.1815L11.274 42.8604L12.9951 44.8498C14.0135 46.0476 15.5542 46.671 17.1184 46.5171L19.4508 46.2847L21.7435 47.4347C22.4503 47.8116 23.225 48.0001 23.9997 48.0001C24.7739 48.0001 25.5481 47.8118 26.2545 47.4351L28.3008 46.3384L30.8304 46.5214C32.4518 46.6969 34.0343 46.0504 35.0665 44.789L36.5573 42.9684L38.7148 42.2523C40.3642 41.8512 41.6899 40.5985 42.1809 38.973L42.8598 36.7259L44.8493 35.0047C46.047 33.9864 46.6705 32.4453 46.5166 30.8813L46.2841 28.549L47.4342 26.2562C48.1876 24.843 48.1884 23.1583 47.4346 21.745ZM45.7757 25.3812C45.7716 25.3889 45.7676 25.3966 45.7637 25.4043L44.4863 27.951C44.4067 28.1096 44.3738 28.2876 44.3913 28.4644L44.6507 31.0659C44.7443 32.0172 44.3645 32.9556 43.6287 33.5813L41.4276 35.4855C41.2934 35.6017 41.1949 35.7535 41.1436 35.9234L40.3861 38.4307C40.0841 39.4304 39.2637 40.1991 38.2451 40.4366C38.2173 40.443 38.1897 40.4508 38.1626 40.4598L35.7088 41.2742C35.5403 41.3302 35.3912 41.4327 35.2788 41.5701L33.6156 43.6013C32.984 44.3734 32.0136 44.7677 31.0206 44.656C31.0082 44.6545 30.9957 44.6534 30.9834 44.6525L28.1651 44.4487C27.9877 44.4359 27.811 44.4736 27.6547 44.5574L25.3706 45.7816C24.5092 46.241 23.4804 46.2391 22.6183 45.7763C22.6107 45.7722 22.603 45.7682 22.5953 45.7644L20.0487 44.4869C19.9178 44.4213 19.7738 44.3874 19.6283 44.3874C19.5974 44.3874 19.5663 44.3889 19.5353 44.392L16.9337 44.6512C15.9826 44.7451 15.044 44.365 14.4183 43.6292L12.5141 41.4282C12.398 41.2939 12.2462 41.1954 12.0762 41.1441L9.56886 40.3867C8.56903 40.0847 7.80047 39.2643 7.563 38.2456C7.55653 38.2178 7.54875 38.1903 7.53975 38.1631L6.72535 35.7092C6.66947 35.5408 6.56691 35.3917 6.42956 35.2793L4.39848 33.6161C3.62636 32.9844 3.23205 32.0143 3.3438 31.0211C3.3452 31.0087 3.34633 30.9963 3.34726 30.9839L3.55108 28.1655C3.56392 27.9885 3.52614 27.8115 3.44233 27.655L2.21805 25.3711C1.75868 24.5097 1.76065 23.4809 2.2233 22.6189C2.22742 22.6113 2.23136 22.6036 2.23521 22.5959L3.51264 20.0492C3.59223 19.8906 3.62514 19.7125 3.60751 19.5359L3.3483 16.9342C3.25473 15.9829 3.63451 15.0445 4.37035 14.4188L6.57141 12.5145C6.70566 12.3984 6.80409 12.2466 6.85547 12.0767L7.61297 9.56931C7.91493 8.56956 8.73534 7.801 9.75402 7.56344C9.78186 7.55697 9.80933 7.54919 9.83652 7.54019L12.2902 6.72569C12.4587 6.66982 12.6078 6.56726 12.7202 6.42991L14.3835 4.39873C15.0152 3.6267 15.9856 3.23258 16.9785 3.34414C16.9908 3.34555 17.0032 3.34667 17.0156 3.34761L19.8339 3.55142C20.0104 3.56399 20.1879 3.52649 20.3444 3.44267L22.6284 2.21849C23.4897 1.75912 24.5186 1.76099 25.3805 2.22374C25.3881 2.22777 25.3958 2.2318 25.4036 2.23565L27.9503 3.51308C28.1089 3.59267 28.2869 3.62567 28.4635 3.60795L31.0652 3.34874C32.0164 3.25499 32.9549 3.63495 33.5806 4.3708L35.4848 6.57185C35.6009 6.7061 35.7528 6.80454 35.9227 6.85591L38.4301 7.61341C39.4298 7.91538 40.1984 8.73587 40.4359 9.75446C40.4424 9.78231 40.4502 9.80977 40.4592 9.83696L41.2737 12.2907C41.3296 12.4591 41.4321 12.6082 41.5695 12.7206L43.6006 14.3838C44.3728 15.0155 44.767 15.9855 44.6552 16.9788C44.6538 16.9912 44.6527 17.0036 44.6519 17.016L44.448 19.8344C44.4352 20.0114 44.473 20.1884 44.5567 20.3449L45.781 22.6289C46.2404 23.4905 46.2385 24.5193 45.7757 25.3812Z" fill="#1F1F1F"/>
<path d="M19.9314 18.8921C19.781 18.5752 19.459 18.3556 19.0849 18.3556H14.1315C13.6137 18.3556 13.194 18.7753 13.194 19.2931V33.4836C13.194 34.0014 13.6137 34.4211 14.1315 34.4211H19.0849C19.4735 34.4211 19.8068 34.1847 19.9489 33.8479C20.6636 33.9482 21.3998 34.1515 22.1663 34.3637C23.3186 34.6827 24.5101 35.0126 25.7481 35.0126H31.1602C32.8332 35.0126 34.1889 34.1257 34.7868 32.6398C35.0779 31.9159 35.1289 31.1646 34.9588 30.5356C35.27 30.2558 35.5331 29.9074 35.732 29.5006C36.1353 28.6764 36.2158 27.7495 35.9872 26.9688C36.4132 26.5573 36.731 26.0138 36.8972 25.373C37.0525 24.774 37.0498 24.1829 36.9116 23.6707C37.7572 23.1733 38.3267 22.2695 38.3267 21.2512C38.3267 20.4526 38.0158 19.7166 37.451 19.1791C36.9088 18.6629 36.1865 18.3786 35.4174 18.3786L27.7889 18.3787C27.2094 17.6517 27.029 16.6651 27.359 15.8709C28.0362 14.241 27.9942 12.8613 27.2231 11.3975C26.6507 10.311 25.1115 9.22934 23.8179 9.41403C23.0359 9.52578 22.4701 10.0784 22.3042 10.8926C22.2553 11.1321 22.2419 11.3908 22.2265 11.6905C22.1882 12.4296 22.1357 13.4419 21.4977 14.6643C21.0652 15.4929 20.9209 16.3452 20.7936 17.0972C20.6113 18.1744 20.5228 18.6933 19.9314 18.8921ZM15.069 20.2306H18.1474V32.5461H15.069V20.2306ZM22.6423 17.4101C22.7516 16.765 22.8644 16.0979 23.1599 15.5319C23.9871 13.9472 24.0571 12.5952 24.099 11.7875C24.1102 11.5723 24.1207 11.3691 24.1415 11.2669C24.1416 11.2662 24.1418 11.2655 24.142 11.2648C24.4672 11.2693 25.2675 11.7084 25.5642 12.2716C26.0778 13.2462 26.0949 14.0269 25.6276 15.1517C25.2062 16.1659 25.2379 17.3427 25.6547 18.3891C25.1986 18.4525 24.8472 18.843 24.8472 19.3165C24.8472 19.8342 25.267 20.254 25.7847 20.254L35.4174 20.2537C35.7031 20.2537 35.9662 20.3544 36.1582 20.5372C36.2922 20.6646 36.4518 20.8921 36.4518 21.2513C36.4518 21.7542 35.9908 22.189 35.4451 22.2009L33.032 22.2534C32.5145 22.2647 32.1039 22.6934 32.1152 23.2111C32.1263 23.7218 32.5437 24.1282 33.0521 24.1282C33.059 24.1282 33.0659 24.1282 33.0729 24.128L35.0825 24.0843C35.1481 24.2701 35.1822 24.6243 35.0442 25.0302C34.9267 25.3754 34.6115 25.9544 33.8183 25.9544C33.3006 25.9544 32.8808 26.3741 32.8808 26.8919C32.8808 27.4096 33.3006 27.8294 33.8183 27.8294C33.9605 27.8294 34.1 27.8205 34.2365 27.8032C34.2481 28.0685 34.1935 28.3793 34.0479 28.6769C33.8758 29.0286 33.5356 29.448 32.8923 29.448C32.3746 29.448 31.9548 29.8678 31.9548 30.3855C31.9548 30.9033 32.3746 31.323 32.8923 31.323C32.9893 31.323 33.0853 31.3187 33.1801 31.3102C33.1776 31.4901 33.1411 31.715 33.0388 31.961C32.8918 32.3148 32.4143 33.1377 31.1603 33.1377H25.7483C24.7651 33.1377 23.7459 32.8555 22.6668 32.5567C21.8082 32.3189 20.9278 32.0754 20.0226 31.9666V20.7895C22.1333 20.407 22.4243 18.6983 22.6423 17.4101Z" fill="#1F1F1F"/>
<path d="M24.0002 7.12512C24.5179 7.12512 24.9377 6.7054 24.9377 6.18762C24.9377 5.66984 24.5179 5.25012 24.0002 5.25012H23.9995C23.4817 5.25012 23.0624 5.66984 23.0624 6.18762C23.0624 6.7054 23.4824 7.12512 24.0002 7.12512Z" fill="#1F1F1F"/>
</g>
<defs>
<clipPath id="clip0">
<rect width="48" height="48" fill="white"/>
</clipPath>
</defs>
</svg>
