<svg width="48" height="48" viewBox="0 0 48 48" fill="none" xmlns="http://www.w3.org/2000/svg">
<g clip-path="url(#clip0)">
<path d="M35.2001 1.47569L35.1994 1.47569C30.5715 1.49743 26.3101 3.97645 24.0005 7.97388C21.1171 2.93522 15.2142 0.431597 9.57434 1.88197C3.86203 3.35088 -0.129335 8.50269 -0.124996 14.4008C-0.124996 21.3132 4.01263 29.3409 9.07784 35.6318C11.6124 38.7796 14.3845 41.4994 16.9977 43.4334C19.6055 45.3634 22.0747 46.5257 24 46.5257C25.9253 46.5257 28.3945 45.3634 31.0023 43.4334C33.6155 41.4994 36.3876 38.7796 38.9222 35.6318C43.9874 29.3409 48.125 21.3132 48.125 14.4007V14.4005C48.1167 7.2656 42.3347 1.48397 35.2001 1.47569ZM1.725 14.4007V14.4006C1.72191 9.05937 5.53317 4.47791 10.7856 3.50877C16.038 2.54003 21.2332 5.46018 23.1359 10.4507L23.136 10.4508C23.2729 10.809 23.6166 11.0452 24 11.0452C24.3834 11.0452 24.7271 10.809 24.864 10.4508L24.8641 10.4507C26.7668 5.46017 31.962 2.54003 37.2144 3.50877C42.4668 4.47791 46.2781 9.05937 46.275 14.4006V14.4007C46.275 20.9396 42.1974 28.5114 37.3531 34.4587C34.9331 37.4297 32.3275 39.9882 29.9553 41.8028C28.7692 42.7101 27.6435 43.4297 26.6305 43.922C25.6156 44.4152 24.7229 44.6757 24 44.6757C23.2771 44.6757 22.3844 44.4152 21.3695 43.922C20.3565 43.4297 19.2308 42.7101 18.0447 41.8028C15.6725 39.9882 13.0669 37.4297 10.6469 34.4587C5.80265 28.5114 1.725 20.9396 1.725 14.4007Z" fill="#1F1F1F" stroke="#1F1F1F" stroke-width="0.25"/>
<path d="M17.475 18.4008C17.475 18.9116 17.8891 19.3258 18.4 19.3258C18.9108 19.3258 19.325 18.9116 19.325 18.4008C19.325 16.1223 17.478 14.2758 15.2 14.2758C12.9219 14.2758 11.075 16.1223 11.075 18.4008C11.075 18.9116 11.4891 19.3258 12 19.3258C12.5108 19.3258 12.925 18.9116 12.925 18.4008C12.925 17.144 13.9436 16.1258 15.2 16.1258C16.4563 16.1258 17.475 17.144 17.475 18.4008Z" fill="#1F1F1F" stroke="#1F1F1F" stroke-width="0.25"/>
<path d="M30.9551 23.9406L30.9548 23.9408C30.955 23.9407 30.953 23.9421 30.9486 23.9456L30.9305 23.9597C30.9149 23.972 30.8923 23.99 30.8638 24.0134C30.8068 24.0602 30.7262 24.1285 30.6298 24.2156C30.4368 24.3899 30.1818 24.639 29.9277 24.9416C29.4157 25.5514 28.925 26.3587 28.925 27.2008C28.925 28.0354 29.4158 28.8426 29.9281 29.4546C30.1823 29.7582 30.4375 30.0087 30.6304 30.1841C30.7268 30.2718 30.8075 30.3405 30.8644 30.3877C30.9193 30.4331 30.9513 30.4576 30.954 30.4597L30.9541 30.4599L30.9551 30.4606C31.3638 30.7672 31.4465 31.347 31.1399 31.7554C30.8336 32.1642 30.2537 32.2473 29.8449 31.9406L29.8428 31.939L29.8428 31.939C28.9643 31.2506 28.2309 30.3955 27.6851 29.423C26.6097 30.1794 25.3166 30.5673 24 30.5258C22.6837 30.5665 21.3914 30.1783 20.3167 29.4215C19.7702 30.3944 19.0365 31.2503 18.1571 31.939L18.1551 31.9406L18.1551 31.9406C17.7463 32.2473 17.1663 32.1642 16.8601 31.7554C16.5535 31.347 16.6362 30.7672 17.0449 30.4606L17.0461 30.4597L17.0461 30.4597C17.046 30.4598 17.0461 30.4596 17.0465 30.4593C17.0484 30.4579 17.0561 30.452 17.0696 30.4414C17.0852 30.4291 17.1077 30.4111 17.1362 30.3877C17.1933 30.3409 17.2739 30.2727 17.3703 30.1856C17.5633 30.0112 17.8184 29.7622 18.0724 29.4596C18.5843 28.8498 19.075 28.0427 19.075 27.2008C19.075 26.366 18.5842 25.5586 18.0719 24.9466C17.8177 24.6429 17.5625 24.3925 17.3695 24.217C17.2732 24.1294 17.1925 24.0606 17.1355 24.0135C17.0806 23.968 17.0486 23.9435 17.046 23.9414C17.0459 23.9413 17.0458 23.9413 17.0458 23.9413L17.0449 23.9406L17.0449 23.9406C16.6362 23.6339 16.5535 23.0545 16.8601 22.6457L30.9551 23.9406ZM30.9551 23.9406C31.3638 23.6339 31.4465 23.0544 31.1398 22.6457C30.8337 22.2371 30.2544 22.1545 29.8458 22.4599L30.9551 23.9406Z" fill="#1F1F1F" stroke="#1F1F1F" stroke-width="0.25"/>
<path d="M32.8001 14.2758L32.7998 14.2758C30.5226 14.2782 28.6777 16.1235 28.6749 18.4006V18.4008C28.6749 18.9116 29.0891 19.3258 29.5999 19.3258C30.1108 19.3258 30.5249 18.9116 30.5249 18.4008C30.5249 17.144 31.5436 16.1258 32.7999 16.1258C34.0563 16.1258 35.0749 17.144 35.0749 18.4008C35.0749 18.9116 35.4891 19.3258 35.9999 19.3258C36.5108 19.3258 36.9249 18.9116 36.9249 18.4008V18.4006C36.9221 16.1235 35.0772 14.2782 32.8001 14.2758Z" fill="#1F1F1F" stroke="#1F1F1F" stroke-width="0.25"/>
</g>
<defs>
<clipPath id="clip0">
<rect width="48" height="48" fill="white"/>
</clipPath>
</defs>
</svg>
