<svg width="48" height="48" viewBox="0 0 48 48" fill="none" xmlns="http://www.w3.org/2000/svg">
<path d="M23.9163 6.09937C24.4377 6.09937 24.8604 5.67666 24.8604 5.15522V0.944156C24.8604 0.422719 24.4377 0 23.9163 0C23.3948 0 22.9721 0.422719 22.9721 0.944156V5.15522C22.9722 5.67666 23.3949 6.09937 23.9163 6.09937Z" fill="#1F1F1F"/>
<path d="M46.995 32.4361L45.3271 30.7729C44.7337 30.1803 43.943 29.8539 43.1003 29.8539C42.5616 29.8539 42.0443 29.9879 41.586 30.2391L38.4429 27.0998L38.596 26.9469C39.8711 25.6692 39.8706 23.5932 38.5959 22.3198C38.1404 21.8635 37.572 21.5592 36.9524 21.4311C37.0377 21.1366 37.0826 20.8282 37.0826 20.5125C37.0826 19.6355 36.7419 18.8131 36.1252 18.199C35.6696 17.7426 35.1013 17.4383 34.4817 17.3102C34.567 17.0157 34.6119 16.7074 34.6119 16.3916C34.6119 15.5145 34.2712 14.6922 33.6535 14.0772C33.187 13.6112 32.6136 13.3163 32.0114 13.1907C32.3335 12.0801 32.0583 10.8305 31.1845 9.95524C30.4572 9.23103 29.4703 8.91977 28.5192 9.02065L22.2909 7.84174C21.3411 7.66156 20.1548 7.5424 19.4061 8.22537C19.3588 8.26849 19.3106 8.31809 19.2632 8.37331C18.1022 7.95012 16.7481 8.20212 15.8183 9.13081C15.2016 9.74684 14.8618 10.5688 14.8618 11.4454C14.8618 11.7611 14.9065 12.0695 14.9917 12.3641C14.3728 12.492 13.8051 12.796 13.3511 13.2508C12.7331 13.8663 12.3923 14.6874 12.3917 15.5629C12.3914 15.8794 12.4363 16.1888 12.522 16.4841C11.9028 16.6118 11.3347 16.9151 10.8793 17.37C10.2613 17.9874 9.92099 18.8098 9.92099 19.6859C9.92099 20.357 10.1213 20.9963 10.4926 21.5363C10.0238 21.6952 9.59446 21.9597 9.23493 22.3188C7.95899 23.5932 7.95852 25.6693 9.23577 26.9488L9.3883 27.1007L6.24486 30.2384C5.07665 29.6884 3.6373 29.8945 2.67327 30.8573L1.00433 32.5215C0.410708 33.1144 0.083895 33.9053 0.0838013 34.7484C0.0838013 35.5916 0.410708 36.3825 1.00433 36.9755L3.08718 39.0558C3.45608 39.4243 4.05393 39.424 4.42236 39.0551C4.7909 38.6861 4.79052 38.0883 4.42161 37.7199L2.33877 35.6396C2.10233 35.4034 1.97211 35.0869 1.97211 34.7485C1.97211 34.4101 2.10233 34.0937 2.33821 33.8581L4.00724 32.1938C4.42424 31.7772 5.06249 31.7152 5.54718 32.005C5.5813 32.0562 5.62077 32.105 5.66596 32.1503C5.74686 32.2314 5.83921 32.2935 5.93727 32.339L15.5085 41.8961C15.554 41.9952 15.6164 42.0885 15.6979 42.1701C15.7772 42.2495 15.8676 42.3109 15.9636 42.3561C16.1661 42.5849 16.2779 42.8772 16.2779 43.1891C16.2779 43.5275 16.1477 43.8439 15.9112 44.0801L14.2439 45.7454C13.7512 46.2359 12.9499 46.2358 12.4587 45.7469L10.3759 43.6639C10.0071 43.2952 9.4094 43.2952 9.04068 43.6639C8.67196 44.0326 8.67196 44.6304 9.04068 44.9991L11.125 47.0836C11.7385 47.6946 12.5442 47.9999 13.3503 47.9999C14.1565 47.9999 14.9631 47.6941 15.5774 47.0826L17.2458 45.4162C17.8394 44.8232 18.1663 44.0323 18.1663 43.1891C18.1663 42.5873 17.999 42.0126 17.6878 41.517L21.2256 37.9836C21.2293 37.9797 21.2331 37.9759 21.2369 37.9721C21.642 37.5533 22.7701 37.6317 23.8611 37.7074C24.6362 37.7613 25.5004 37.8212 26.3447 37.7239L30.2188 41.5934C29.9678 42.051 29.8339 42.5676 29.8339 43.1055C29.8339 43.9479 30.1608 44.7383 30.7544 45.3312L32.4229 46.9977C33.0161 47.5902 33.8069 47.9167 34.6495 47.9167C35.4921 47.9167 36.2828 47.5903 36.8762 46.9977L46.9956 36.8905C47.5893 36.2976 47.9162 35.5067 47.9162 34.6635C47.9161 33.8204 47.5892 33.0296 46.995 32.4361ZM21.9394 9.69706L26.035 10.4723L23.5836 12.9228C23.2043 12.7406 22.6846 12.4006 22.1144 11.8552C21.3339 11.1086 20.7756 10.2465 20.7248 9.70887C20.7247 9.70859 20.7247 9.70831 20.7247 9.70802C20.7247 9.70793 20.7246 9.70784 20.7246 9.70774C20.721 9.66912 20.7201 9.63827 20.7205 9.61474C20.844 9.58474 21.1719 9.55146 21.9394 9.69706ZM17.1527 10.4668C17.631 9.98899 18.3741 9.93387 18.9145 10.2999C19.2208 11.5841 20.3163 12.748 20.8091 13.2195C21.1744 13.569 22.3463 14.6169 23.5293 14.9049C23.6893 15.1343 23.7764 15.4077 23.7764 15.6963C23.7764 16.068 23.6334 16.4156 23.3729 16.6758C23.1131 16.9361 22.765 17.0793 22.3926 17.0793C22.0202 17.0793 21.6721 16.9361 21.4111 16.6746L21.411 16.6745L21.4105 16.674L17.1526 12.4238C16.893 12.1646 16.75 11.817 16.75 11.4454C16.7501 11.0737 16.8931 10.7262 17.1527 10.4668ZM14.6856 14.5869C14.9453 14.3267 15.2931 14.1834 15.6649 14.1834C16.0371 14.1834 16.386 14.327 16.6475 14.5882L20.0761 18.01C20.616 18.5507 20.616 19.4306 20.078 19.9695C19.8168 20.2297 19.4675 20.3729 19.0944 20.3729C18.7214 20.3729 18.3721 20.2297 18.112 19.9706L18.1119 19.9706L15.5108 17.37C15.5068 17.366 15.5024 17.3622 15.4983 17.3581L14.6845 16.5447C14.4234 16.2839 14.2797 15.9357 14.28 15.5643C14.2804 15.1941 14.4236 14.8477 14.6856 14.5869ZM12.2137 18.7061C12.4737 18.4465 12.8222 18.3035 13.1951 18.3035C13.565 18.3035 13.9104 18.4444 14.1693 18.6995L16.7783 21.3073C17.0385 21.5665 17.1818 21.9136 17.1818 22.2849C17.1818 22.656 17.0385 23.0032 16.7773 23.2633C16.5174 23.5228 16.1693 23.6658 15.7971 23.6658C15.4242 23.6658 15.075 23.5225 14.8147 23.2633L13.8689 22.3186C13.8687 22.3183 13.8684 22.3181 13.8682 22.318L12.2138 20.6655C11.953 20.405 11.8094 20.057 11.8094 19.6857C11.8094 19.3146 11.953 18.9665 12.2137 18.7061ZM10.5694 23.6547C10.8305 23.3939 11.1794 23.2503 11.5519 23.2503C11.9242 23.2503 12.2731 23.3938 12.5341 23.6545L13.4812 24.6005C13.7415 24.8596 13.8847 25.2068 13.8847 25.578C13.8847 25.9493 13.7414 26.2963 13.4793 26.5575C13.2195 26.8177 12.8714 26.961 12.499 26.961C12.1266 26.961 11.7785 26.8178 11.5168 26.5557L11.3982 26.4375C11.3966 26.4359 11.3954 26.4342 11.3939 26.4327C11.3921 26.4311 11.3902 26.4296 11.3885 26.4279L10.5703 25.6129C10.0304 25.0719 10.0299 24.1935 10.5694 23.6547ZM29.8101 34.3852C29.4415 34.0162 28.8437 34.0159 28.4749 34.3843L27.6349 35.2233C26.8367 36.0215 25.3904 35.921 23.9917 35.824C22.4729 35.7184 20.9023 35.6095 19.886 36.6529L16.4083 40.1263L7.71177 31.4426L10.7894 28.3705C11.2981 28.6823 11.8851 28.8494 12.4992 28.8494C13.3766 28.8494 14.1994 28.5093 14.8139 27.8937C15.4326 27.2775 15.7733 26.4552 15.7733 25.5781C15.7733 25.57 15.7728 25.5619 15.7728 25.5537C15.7809 25.5538 15.7891 25.5543 15.7972 25.5543C16.6734 25.5543 17.4955 25.2152 18.1109 24.6006C18.7296 23.9845 19.0703 23.1621 19.0703 22.2851C19.0703 22.2769 19.0698 22.2688 19.0698 22.2607C19.078 22.2607 19.0863 22.2612 19.0946 22.2612C19.9705 22.2612 20.7931 21.9225 21.4126 21.3056C22.0557 20.6614 22.3738 19.8133 22.3677 18.9671C22.3761 18.9671 22.3846 18.9676 22.393 18.9676C23.2704 18.9675 24.0931 18.6275 24.7086 18.0109C25.3253 17.3949 25.6651 16.5729 25.6651 15.6963C25.6651 15.0833 25.4984 14.4972 25.1876 13.9896L27.8851 11.2932C28.0861 11.0931 28.334 10.9675 28.5937 10.9156C28.6219 10.9126 28.6496 10.9081 28.6771 10.9027C29.0939 10.8452 29.5316 10.9738 29.8504 11.2913C30.3903 11.8321 30.3903 12.7121 29.8523 13.2509L29.0308 14.0691C29.0281 14.0718 29.0252 14.0742 29.0225 14.077L28.0762 15.0216C27.7072 15.39 27.7069 15.9879 28.0754 16.3568C28.444 16.7258 29.0418 16.7261 29.4106 16.3576L30.2354 15.5339C30.2356 15.5337 30.2358 15.5336 30.236 15.5334L30.3606 15.4091C30.9021 14.8727 31.7792 14.8738 32.32 15.4139C32.5803 15.6731 32.7236 16.0202 32.7236 16.3915C32.7236 16.7626 32.5803 17.1098 32.318 17.371L31.4917 18.1989C31.4916 18.199 31.4916 18.1991 31.4915 18.1992L30.5453 19.1415C30.1759 19.5095 30.1746 20.1073 30.5426 20.4767C30.9106 20.8462 31.5083 20.8473 31.8778 20.4794L32.8282 19.5328C33.088 19.2726 33.4361 19.1293 33.8085 19.1293C34.181 19.1293 34.5291 19.2726 34.7908 19.5347C35.0511 19.7939 35.1943 20.1411 35.1943 20.5123C35.1943 20.8835 35.0511 21.2306 34.7893 21.4913L33.1421 23.1391C32.7735 23.5079 32.7736 24.1057 33.1423 24.4743C33.3267 24.6586 33.5682 24.7507 33.8098 24.7507C34.0515 24.7507 34.2932 24.6584 34.4775 24.474L35.2848 23.6665C35.2894 23.6621 35.2943 23.6582 35.2989 23.6536C35.5587 23.3934 35.9068 23.2501 36.2792 23.2501C36.6516 23.2501 36.9997 23.3934 37.2605 23.6546C37.7998 24.1933 37.7993 25.0718 37.2605 25.6116L36.4397 26.4314C36.4394 26.4317 36.439 26.432 36.4387 26.4323C36.4385 26.4326 36.4382 26.4329 36.4379 26.4332L35.1351 27.7344C34.7662 28.1029 34.7659 28.7007 35.1343 29.0696C35.3187 29.2542 35.5606 29.3466 35.8024 29.3466C36.0438 29.3466 36.2853 29.2545 36.4696 29.0705L37.1068 28.434L40.1609 31.4846L31.4651 40.1697L28.3494 37.0578C28.5666 36.9181 28.7745 36.7539 28.9696 36.5588L29.8091 35.7203C30.1782 35.3519 30.1786 34.7541 29.8101 34.3852ZM45.6611 35.5544L35.5416 45.6616C35.3049 45.8981 34.9881 46.0283 34.6494 46.0283C34.3108 46.0283 33.9939 45.8981 33.7571 45.6615L32.0886 43.9951C31.8522 43.7591 31.722 43.4431 31.722 43.1055C31.722 42.768 31.8522 42.4521 32.0886 42.2159L42.2081 32.1087C42.4449 31.8722 42.7617 31.742 43.1004 31.742C43.4391 31.742 43.7559 31.8722 43.9933 32.1093L45.6612 33.7725C45.8976 34.0087 46.0279 34.325 46.0279 34.6634C46.0278 35.002 45.8976 35.3184 45.6611 35.5544Z" fill="#1F1F1F"/>
<path d="M11.3792 5.30343C11.5635 5.48737 11.8048 5.57924 12.0461 5.57924C12.288 5.57924 12.53 5.48681 12.7144 5.30202C13.0827 4.93293 13.0822 4.33518 12.7131 3.96684L9.27263 0.533243C8.90363 0.164899 8.30579 0.165368 7.93744 0.534555C7.5691 0.903649 7.56966 1.5014 7.93876 1.86974L11.3792 5.30343Z" fill="#1F1F1F"/>
<path d="M35.7864 5.57921C36.0278 5.57921 36.2693 5.48714 36.4536 5.30311L39.8915 1.86943C40.2604 1.50099 40.2607 0.903145 39.8922 0.534238C39.5238 0.165332 38.926 0.164957 38.557 0.533488L35.1192 3.96718C34.7503 4.33561 34.7499 4.93346 35.1184 5.30236C35.3029 5.48696 35.5446 5.57921 35.7864 5.57921Z" fill="#1F1F1F"/>
<path d="M5.88926 40.6129C5.52373 40.9848 5.52879 41.5826 5.9007 41.9481L5.90342 41.9508C6.08689 42.1311 6.32511 42.221 6.56323 42.221C6.80764 42.221 7.05204 42.1264 7.2372 41.938C7.60273 41.5662 7.59626 40.967 7.22445 40.6015C6.85273 40.236 6.25498 40.2411 5.88926 40.6129Z" fill="#1F1F1F"/>
<path d="M32.1193 33.0251C32.263 33.0251 32.4087 32.9924 32.5454 32.9235C33.011 32.6886 33.198 32.1209 32.9633 31.6553C32.7284 31.1898 32.1606 31.0026 31.6951 31.2375L31.6899 31.2401C31.2243 31.4749 31.0399 32.0414 31.2747 32.5069C31.4404 32.8358 31.7738 33.0251 32.1193 33.0251Z" fill="#1F1F1F"/>
</svg>
