<svg width="48" height="48" viewBox="0 0 48 48" fill="none" xmlns="http://www.w3.org/2000/svg">
<path d="M45.4039 7.30313C44.9553 6.51589 44.3404 5.83595 43.602 5.3107C42.8637 4.78545 42.0197 4.42753 41.1289 4.26188L40.65 2.283C40.6297 2.19903 40.593 2.11989 40.542 2.05012C40.4911 1.98036 40.4268 1.92135 40.353 1.87647C40.2792 1.8316 40.1972 1.80174 40.1118 1.78862C40.0264 1.7755 39.9393 1.77937 39.8554 1.8L36.1804 2.68988C36.0113 2.73093 35.8653 2.83744 35.7747 2.98602C35.6841 3.1346 35.6561 3.31308 35.697 3.48225L36.0473 4.92863L11.6625 10.8334C11.4938 10.8748 11.3484 10.9813 11.2581 11.1297C11.1678 11.278 11.1399 11.4561 11.1806 11.625L11.4158 12.5959L6.98775 13.6684C6.81862 13.7094 6.6727 13.8159 6.58207 13.9645C6.49143 14.1131 6.46348 14.2916 6.50438 14.4608L6.85125 15.8933L2.28525 16.9984C2.20148 17.0187 2.12252 17.0552 2.05289 17.106C1.98326 17.1568 1.92432 17.2209 1.87943 17.2944C1.83455 17.368 1.80459 17.4497 1.79129 17.5349C1.77798 17.62 1.78158 17.707 1.80188 17.7908L2.64563 21.2745C2.68025 21.4175 2.76192 21.5448 2.87752 21.6358C2.99313 21.7269 3.13597 21.7765 3.28313 21.7766C3.3353 21.7764 3.38728 21.7701 3.438 21.7579L8.00363 20.6528L8.34938 22.0807C8.384 22.2238 8.46567 22.351 8.58127 22.4421C8.69688 22.5331 8.83972 22.5827 8.98688 22.5829C9.03907 22.5829 9.09107 22.5766 9.14175 22.5641L13.5701 21.4924L13.8056 22.4636C13.8404 22.6066 13.9221 22.7337 14.0377 22.8246C14.1533 22.9156 14.296 22.9652 14.4431 22.9654C14.4953 22.9654 14.5473 22.9591 14.598 22.9466L21.1568 21.3574C21.2356 21.7338 21.3885 22.0907 21.6068 22.4074L11.1589 43.6522C11.0258 43.9237 10.9639 44.2246 10.9792 44.5265C10.9944 44.8285 11.0862 45.1216 11.2459 45.3783C11.4057 45.635 11.6281 45.8468 11.8923 45.9938C12.1564 46.1409 12.4537 46.2183 12.756 46.2187C13.0886 46.2172 13.4142 46.1232 13.6964 45.9472C13.9786 45.7711 14.2063 45.5201 14.3539 45.222L22.221 29.2219V44.4375C22.221 44.9099 22.4087 45.363 22.7427 45.697C23.0768 46.0311 23.5298 46.2187 24.0023 46.2187C24.4747 46.2187 24.9277 46.0311 25.2618 45.697C25.5958 45.363 25.7835 44.9099 25.7835 44.4375V29.2219L33.6506 45.222C33.7984 45.5203 34.0262 45.7715 34.3087 45.9476C34.5912 46.1236 34.9172 46.2175 35.25 46.2187C35.5219 46.2198 35.7902 46.1572 36.0334 46.0357C36.2435 45.9329 36.4312 45.7897 36.5859 45.6143C36.7405 45.4388 36.859 45.2346 36.9347 45.0132C37.0103 44.7919 37.0415 44.5578 37.0266 44.3244C37.0116 44.091 36.9508 43.8629 36.8475 43.653L26.4 22.4059C26.6404 22.0576 26.801 21.6606 26.8704 21.2432C26.9397 20.8258 26.9161 20.3981 26.8013 19.9909L38.9816 17.0374L39.3326 18.4856C39.3737 18.6548 39.4802 18.8007 39.6288 18.8913C39.7774 18.9819 39.9558 19.0099 40.125 18.969L43.8 18.0788C43.8838 18.0585 43.9628 18.022 44.0325 17.9712C44.1021 17.9204 44.1611 17.8564 44.206 17.7828C44.2509 17.7092 44.2808 17.6275 44.2941 17.5423C44.3074 17.4571 44.3037 17.3701 44.2834 17.2864L43.8045 15.3086C44.9879 14.3886 45.8007 13.0735 46.0944 11.6036C46.3881 10.1337 46.143 8.60721 45.4039 7.30313ZM3.76688 20.3276L3.23213 18.1196L7.15988 17.169L7.69463 19.377L3.76688 20.3276ZM9.47063 21.1343L9.12863 19.7216C9.12863 19.7164 9.12863 19.7111 9.12638 19.7059C9.12413 19.7006 9.12263 19.6958 9.12113 19.6905L8.2845 16.2375C8.2845 16.2326 8.2845 16.2281 8.2845 16.2236C8.2845 16.2191 8.28113 16.215 8.28 16.2101L7.93613 14.7911L11.7266 13.8739L13.2641 20.2181L9.47063 21.1343ZM25.335 19.8967C25.5352 20.2014 25.6241 20.5657 25.587 20.9283C25.5498 21.2909 25.3888 21.6296 25.131 21.8873L25.1276 21.8914C24.9798 22.0394 24.8043 22.1568 24.611 22.2369C24.4178 22.317 24.2107 22.3583 24.0015 22.3583C23.7923 22.3583 23.5852 22.317 23.392 22.2369C23.1987 22.1568 23.0232 22.0394 22.8754 21.8914L22.872 21.8873C22.7144 21.7294 22.5916 21.5401 22.5118 21.3318C22.432 21.1235 22.3969 20.9007 22.4087 20.6779C22.4205 20.4551 22.479 20.2373 22.5804 20.0385C22.6818 19.8398 22.8238 19.6646 22.9972 19.5243C23.1707 19.384 23.3717 19.2816 23.5872 19.224C23.8027 19.1663 24.028 19.1546 24.2483 19.1896C24.4687 19.2246 24.6792 19.3055 24.8663 19.427C25.0533 19.5486 25.2128 19.7081 25.3343 19.8953L25.335 19.8967ZM13.1756 44.6434C13.1348 44.7263 13.0702 44.7953 12.9902 44.8416C12.9102 44.8879 12.8183 44.9094 12.726 44.9035C12.6337 44.8976 12.5453 44.8645 12.4718 44.8084C12.3983 44.7523 12.3431 44.6757 12.3131 44.5882C12.2932 44.5303 12.2849 44.4689 12.2889 44.4078C12.2929 44.3466 12.309 44.2869 12.3364 44.232L22.221 24.1275V26.2478L13.1756 44.6434ZM24.0023 44.9059C23.878 44.9058 23.7588 44.8564 23.6709 44.7685C23.583 44.6806 23.5336 44.5614 23.5335 44.4371V23.6306C23.8436 23.6856 24.1609 23.6856 24.471 23.6306V44.4375C24.4709 44.5618 24.4215 44.681 24.3336 44.7688C24.2457 44.8567 24.1265 44.9061 24.0023 44.9062V44.9059ZM35.6914 44.5879C35.6712 44.6469 35.6395 44.7013 35.598 44.7478C35.5565 44.7944 35.5062 44.8322 35.4499 44.859C35.3383 44.9094 35.2116 44.9151 35.096 44.8748C34.9804 44.8346 34.8846 44.7514 34.8285 44.6426L25.7835 26.2478V24.1275L35.6685 44.2331C35.6956 44.2877 35.7116 44.3472 35.7155 44.408C35.7194 44.4688 35.7112 44.5299 35.6914 44.5875V44.5879ZM24.0023 17.8594C23.3661 17.8605 22.7478 18.0701 22.2422 18.4562C21.7366 18.8423 21.3715 19.3835 21.2029 19.9969L14.925 21.5168L12.8453 12.9293V12.9263V12.9229L12.6109 11.955L36.357 6.204L38.6719 15.7616L26.1375 18.801C25.8664 18.5045 25.5365 18.2677 25.1689 18.1056C24.8013 17.9435 24.404 17.8596 24.0023 17.8594ZM40.4531 17.5388L37.4831 5.27625C37.4831 5.2695 37.4831 5.26275 37.4801 5.256C37.4771 5.24925 37.4753 5.24363 37.4738 5.23725L37.128 3.81225L39.528 3.231L42.8535 16.959L40.4531 17.5388ZM41.4769 5.70525C42.2831 5.95974 43.01 6.41809 43.5872 7.03593C44.1643 7.65376 44.5721 8.41015 44.7712 9.23185C44.9702 10.0536 44.9537 10.9127 44.7232 11.7262C44.4928 12.5396 44.0562 13.2798 43.4558 13.875L41.4769 5.70525Z" fill="#1F1F1F"/>
<path d="M28.8881 8.97822L23.8478 10.2C23.7618 10.2181 23.6804 10.2533 23.6083 10.3035C23.5362 10.3536 23.4749 10.4178 23.428 10.4921C23.3812 10.5664 23.3497 10.6493 23.3355 10.736C23.3213 10.8227 23.3246 10.9113 23.3453 10.9967C23.366 11.082 23.4036 11.1624 23.4559 11.233C23.5083 11.3035 23.5742 11.3629 23.6499 11.4075C23.7255 11.4521 23.8094 11.481 23.8965 11.4926C23.9835 11.5042 24.072 11.4982 24.1567 11.475L29.1975 10.2536C29.2833 10.2353 29.3645 10.2 29.4364 10.1497C29.5083 10.0995 29.5694 10.0353 29.6161 9.96107C29.6627 9.88681 29.6941 9.80395 29.7082 9.71739C29.7223 9.63082 29.7189 9.5423 29.6982 9.45707C29.6775 9.37184 29.64 9.29161 29.5878 9.22114C29.5355 9.15067 29.4697 9.09138 29.3942 9.04677C29.3187 9.00216 29.235 8.97315 29.1481 8.96144C29.0612 8.94973 28.9728 8.95557 28.8881 8.9786V8.97822Z" fill="#1F1F1F"/>
<path d="M33.7688 8.47125C33.7487 8.38734 33.7123 8.30823 33.6615 8.23845C33.6108 8.16868 33.5468 8.10962 33.4731 8.06466C33.3995 8.01971 33.3177 7.98975 33.2325 7.97651C33.1472 7.96327 33.0602 7.967 32.9764 7.9875L31.4764 8.3505C31.3904 8.36862 31.309 8.40381 31.2369 8.45398C31.1648 8.50415 31.1035 8.56829 31.0566 8.64258C31.0098 8.71688 30.9783 8.79983 30.9641 8.88651C30.9499 8.97319 30.9533 9.06184 30.974 9.1472C30.9946 9.23257 31.0323 9.31291 31.0846 9.38347C31.1369 9.45403 31.2028 9.51337 31.2785 9.55798C31.3542 9.60258 31.438 9.63154 31.5251 9.64314C31.6122 9.65474 31.7007 9.64874 31.7854 9.6255L33.2835 9.2625C33.3674 9.24246 33.4464 9.20609 33.5162 9.15547C33.586 9.10484 33.6451 9.04096 33.6902 8.96747C33.7352 8.89398 33.7654 8.81233 33.7789 8.72718C33.7924 8.64204 33.7889 8.55507 33.7688 8.47125Z" fill="#1F1F1F"/>
</svg>
