<svg width="48" height="40" viewBox="0 0 48 40" fill="none" xmlns="http://www.w3.org/2000/svg">
<path d="M46.9112 24.7342L45.2433 23.071C44.6499 22.4784 43.8592 22.152 43.0165 22.152C42.4778 22.152 41.9605 22.286 41.5022 22.5372L38.3591 19.3979L38.5122 19.245C39.7873 17.9673 39.7868 15.8912 38.5121 14.6179C38.0566 14.1616 37.4882 13.8572 36.8686 13.7292C36.9539 13.4347 36.9988 13.1263 36.9988 12.8106C36.9988 11.9336 36.6581 11.1112 36.0414 10.4971C35.5858 10.0407 35.0175 9.73637 34.3979 9.60831C34.4832 9.31384 34.5281 9.0055 34.5281 8.68974C34.5281 7.81262 34.1874 6.99034 33.5697 6.37525C33.1032 5.90931 32.5298 5.61437 31.9276 5.48884C32.2497 4.37818 31.9745 3.12859 31.1007 2.25334C30.3734 1.52912 29.3865 1.21787 28.4354 1.31875L22.2071 0.139839C21.2573 -0.0403487 20.071 -0.159505 19.3223 0.523464C19.275 0.566589 19.2268 0.616183 19.1794 0.671402C18.0184 0.248214 16.6643 0.500214 15.7345 1.4289C15.1178 2.04493 14.778 2.86693 14.778 3.7435C14.778 4.05925 14.8227 4.36759 14.9079 4.66215C14.289 4.79012 13.7213 5.09406 13.2673 5.54893C12.6493 6.1644 12.3085 6.98546 12.3079 7.861C12.3076 8.1775 12.3525 8.48687 12.4382 8.78218C11.819 8.90987 11.2509 9.21325 10.7955 9.66812C10.1775 10.2855 9.83719 11.1079 9.83719 11.984C9.83719 12.6551 10.0375 13.2944 10.4088 13.8344C9.94003 13.9933 9.51066 14.2577 9.15113 14.6169C7.87519 15.8912 7.87472 17.9674 9.15197 19.2469L9.3045 19.3988L6.16106 22.5365C4.99284 21.9865 3.5535 22.1926 2.58947 23.1554L0.920531 24.8196C0.326906 25.4125 9.375e-05 26.2034 0 27.0465C0 27.8897 0.326906 28.6806 0.920531 29.2736L3.00338 31.3539C3.37228 31.7224 3.97013 31.7221 4.33856 31.3532C4.70709 30.9842 4.70672 30.3864 4.33781 30.018L2.25497 27.9377C2.01853 27.7015 1.88831 27.385 1.88831 27.0466C1.88831 26.7082 2.01853 26.3918 2.25441 26.1562L3.92344 24.4919C4.34044 24.0753 4.97869 24.0133 5.46338 24.3031C5.4975 24.3543 5.53697 24.4031 5.58216 24.4484C5.66306 24.5295 5.75541 24.5916 5.85347 24.6371L15.4247 34.1942C15.4702 34.2933 15.5326 34.3866 15.6141 34.4682C15.6934 34.5476 15.7838 34.609 15.8798 34.6542C16.0823 34.883 16.1941 35.1753 16.1941 35.4872C16.1941 35.8256 16.0639 36.142 15.8274 36.3782L14.1601 38.0435C13.6674 38.534 12.8661 38.5339 12.3749 38.045L10.2921 35.962C9.92334 35.5933 9.32559 35.5933 8.95688 35.962C8.58816 36.3307 8.58816 36.9285 8.95688 37.2972L11.0412 39.3817C11.6547 39.9927 12.4604 40.298 13.2665 40.298C14.0727 40.298 14.8793 39.9922 15.4936 39.3807L17.162 37.7143C17.7556 37.1213 18.0825 36.3304 18.0825 35.4872C18.0825 34.8854 17.9152 34.3107 17.604 33.8151L21.1418 30.2817C21.1455 30.2778 21.1493 30.274 21.1531 30.2702C21.5582 29.8514 22.6863 29.9297 23.7773 30.0055C24.5524 30.0594 25.4166 30.1193 26.2609 30.022L30.135 33.8915C29.884 34.3491 29.7501 34.8657 29.7501 35.4036C29.7501 36.246 30.077 37.0364 30.6706 37.6293L32.3391 39.2957C32.9323 39.8883 33.7231 40.2148 34.5657 40.2148C35.4083 40.2148 36.199 39.8884 36.7924 39.2957L46.9118 29.1886C47.5055 28.5957 47.8324 27.8048 47.8324 26.9616C47.8323 26.1185 47.5054 25.3277 46.9112 24.7342ZM21.8556 1.99515L25.9512 2.77037L23.4998 5.2209C23.1205 5.03865 22.6008 4.69871 22.0306 4.15328C21.2501 3.40665 20.6918 2.54462 20.641 2.00696C20.6409 2.00668 20.6409 2.0064 20.6409 2.00612C20.6409 2.00603 20.6408 2.00593 20.6408 2.00584C20.6372 1.96721 20.6363 1.93637 20.6367 1.91284C20.7602 1.88284 21.0881 1.84956 21.8556 1.99515ZM17.0689 2.76493C17.5472 2.28709 18.2903 2.23196 18.8307 2.59796C19.137 3.88215 20.2325 5.04606 20.7253 5.51762C21.0906 5.86712 22.2625 6.91496 23.4455 7.20296C23.6055 7.43237 23.6926 7.70584 23.6926 7.9944C23.6926 8.36612 23.5496 8.71365 23.2891 8.9739C23.0293 9.23415 22.6812 9.3774 22.3088 9.3774C21.9364 9.3774 21.5883 9.23415 21.3273 8.97268L21.3272 8.97259L21.3267 8.97212L17.0688 4.72187C16.8092 4.46265 16.6662 4.11512 16.6662 3.7435C16.6663 3.37178 16.8093 3.02425 17.0689 2.76493ZM14.6018 6.88496C14.8615 6.62481 15.2093 6.48146 15.5811 6.48146C15.9533 6.48146 16.3022 6.62509 16.5637 6.88628L19.9923 10.3081C20.5322 10.8488 20.5322 11.7287 19.9942 12.2676C19.733 12.5278 19.3837 12.671 19.0106 12.671C18.6376 12.671 18.2883 12.5278 18.0282 12.2687L18.0281 12.2687L15.427 9.66812C15.423 9.66409 15.4186 9.66034 15.4145 9.65621L14.6007 8.84284C14.3396 8.58203 14.1959 8.23384 14.1962 7.8624C14.1966 7.49218 14.3398 7.14578 14.6018 6.88496ZM12.1299 11.0042C12.3899 10.7446 12.7384 10.6016 13.1113 10.6016C13.4812 10.6016 13.8266 10.7425 14.0855 10.9976L16.6945 13.6054C16.9547 13.8646 17.098 14.2117 17.098 14.583C17.098 14.9541 16.9547 15.3013 16.6935 15.5614C16.4336 15.8209 16.0855 15.9639 15.7133 15.9639C15.3404 15.9639 14.9912 15.8206 14.7309 15.5614L13.7851 14.6167C13.7849 14.6164 13.7846 14.6162 13.7844 14.6161L12.13 12.9636C11.8692 12.7031 11.7256 12.3551 11.7256 11.9838C11.7256 11.6127 11.8692 11.2646 12.1299 11.0042ZM10.4856 15.9528C10.7467 15.692 11.0956 15.5484 11.4681 15.5484C11.8404 15.5484 12.1893 15.6919 12.4503 15.9526L13.3974 16.8986C13.6577 17.1577 13.8009 17.5049 13.8009 17.8761C13.8009 18.2474 13.6576 18.5944 13.3955 18.8556C13.1357 19.1158 12.7876 19.2591 12.4152 19.2591C12.0428 19.2591 11.6947 19.1159 11.433 18.8537L11.3144 18.7356C11.3128 18.734 11.3116 18.7323 11.3101 18.7308C11.3083 18.7292 11.3064 18.7277 11.3047 18.726L10.4865 17.911C9.9466 17.37 9.94613 16.4916 10.4856 15.9528ZM29.7263 26.6833C29.3577 26.3143 28.7599 26.314 28.3911 26.6824L27.5511 27.5214C26.7529 28.3196 25.3066 28.2191 23.9079 28.1221C22.3891 28.0165 20.8185 27.9076 19.8022 28.951L16.3245 32.4244L7.62797 23.7407L10.7056 20.6686C11.2143 20.9804 11.8013 21.1475 12.4154 21.1475C13.2928 21.1475 14.1156 20.8074 14.7301 20.1917C15.3488 19.5756 15.6895 18.7533 15.6895 17.8762C15.6895 17.8681 15.689 17.86 15.689 17.8518C15.6971 17.8519 15.7053 17.8524 15.7134 17.8524C16.5896 17.8524 17.4117 17.5133 18.0271 16.8987C18.6458 16.2826 18.9865 15.4602 18.9865 14.5832C18.9865 14.575 18.986 14.5669 18.986 14.5588C18.9942 14.5588 19.0025 14.5593 19.0108 14.5593C19.8867 14.5593 20.7093 14.2206 21.3288 13.6037C21.9719 12.9595 22.29 12.1114 22.2839 11.2652C22.2923 11.2652 22.3008 11.2657 22.3092 11.2657C23.1866 11.2656 24.0093 10.9256 24.6248 10.309C25.2415 9.69296 25.5813 8.87096 25.5813 7.9944C25.5813 7.38137 25.4146 6.79534 25.1038 6.28768L27.8013 3.59134C28.0023 3.39118 28.2502 3.26556 28.5099 3.21371C28.5381 3.21071 28.5658 3.20621 28.5933 3.20078C29.0101 3.14331 29.4478 3.27193 29.7666 3.58937C30.3065 4.13021 30.3065 5.01015 29.7685 5.54903L28.947 6.36718C28.9443 6.3699 28.9414 6.37234 28.9387 6.37506L27.9924 7.31968C27.6234 7.68812 27.6231 8.28596 27.9916 8.65487C28.3602 9.02387 28.958 9.02415 29.3268 8.65571L30.1516 7.83203C30.1518 7.83184 30.152 7.83165 30.1522 7.83146L30.2768 7.70725C30.8183 7.17081 31.6954 7.17193 32.2362 7.71203C32.4965 7.97115 32.6398 8.31831 32.6398 8.68956C32.6398 9.06071 32.4965 9.40787 32.2342 9.66906L31.4079 10.497C31.4078 10.4971 31.4078 10.4972 31.4077 10.4973L30.4615 11.4396C30.0921 11.8076 30.0908 12.4054 30.4588 12.7748C30.8268 13.1443 31.4245 13.1454 31.794 12.7775L32.7444 11.8309C33.0042 11.5707 33.3523 11.4274 33.7247 11.4274C34.0972 11.4274 34.4453 11.5707 34.707 11.8328C34.9673 12.092 35.1105 12.4392 35.1105 12.8104C35.1105 13.1816 34.9673 13.5287 34.7055 13.7894L33.0583 15.4372C32.6897 15.806 32.6898 16.4038 33.0585 16.7724C33.2429 16.9567 33.4844 17.0488 33.726 17.0488C33.9677 17.0488 34.2094 16.9565 34.3937 16.7721L35.201 15.9646C35.2056 15.9602 35.2105 15.9563 35.2151 15.9517C35.4749 15.6915 35.823 15.5482 36.1954 15.5482C36.5678 15.5482 36.9159 15.6915 37.1767 15.9527C37.716 16.4914 37.7155 17.3699 37.1767 17.9097L36.3559 18.7295C36.3556 18.7298 36.3552 18.7301 36.3549 18.7304C36.3547 18.7307 36.3544 18.731 36.3541 18.7313L35.0513 20.0325C34.6824 20.401 34.6821 20.9988 35.0505 21.3677C35.2349 21.5523 35.4768 21.6447 35.7186 21.6447C35.96 21.6447 36.2015 21.5526 36.3858 21.3686L37.023 20.7321L40.0771 23.7826L31.3813 32.4678L28.2656 29.3559C28.4828 29.2162 28.6907 29.052 28.8858 28.8569L29.7253 28.0184C30.0944 27.65 30.0948 27.0522 29.7263 26.6833ZM45.5773 27.8525L35.4578 37.9597C35.2211 38.1962 34.9043 38.3264 34.5656 38.3264C34.227 38.3264 33.9101 38.1962 33.6733 37.9596L32.0048 36.2932C31.7684 36.0572 31.6382 35.7412 31.6382 35.4036C31.6382 35.0661 31.7684 34.7502 32.0048 34.514L42.1243 24.4068C42.3611 24.1703 42.6779 24.0401 43.0166 24.0401C43.3553 24.0401 43.6721 24.1703 43.9095 24.4074L45.5774 26.0706C45.8138 26.3068 45.9441 26.6231 45.9441 26.9615C45.944 27.3001 45.8138 27.6165 45.5773 27.8525Z" fill="#1F1F1F"/>
</svg>
