<svg width="15" height="32" viewBox="0 0 15 32" fill="none" xmlns="http://www.w3.org/2000/svg">
<path d="M3.30846 6.32308C3.30846 7.10266 3.30846 10.5963 3.30846 10.5963H0.249878V15.8224H3.30846V31.3563H9.5877V15.8224H13.8021C13.8021 15.8224 14.1967 13.3177 14.387 10.5747C13.8373 10.5747 9.60884 10.5747 9.60884 10.5747C9.60884 10.5747 9.60884 7.53577 9.60884 7.00161C9.60884 6.46745 10.2924 5.74562 10.969 5.74562C11.6455 5.74562 13.0691 5.74562 14.394 5.74562C14.394 5.031 14.394 2.57676 14.394 0.302979C12.6322 0.302979 10.6237 0.302979 9.74274 0.302979C3.15341 0.310197 3.30846 5.5435 3.30846 6.32308Z" fill="#30ABAE"/>
</svg>
